<svg width="483" height="223" viewBox="0 0 483 223" fill="none" xmlns="http://www.w3.org/2000/svg">
<path d="M455.298 6.4201C452.632 10.0201 449.965 13.0868 449.165 13.0868C448.498 13.0868 444.898 11.8868 441.165 10.4201C437.432 8.95344 433.565 7.75344 432.498 7.75344C429.165 7.75344 430.232 12.1534 435.698 19.7534L440.898 26.9534L437.565 31.8868C433.165 38.5534 434.365 40.0201 443.832 39.4868L451.565 39.0868L457.165 45.4868C465.432 54.8201 469.565 53.3534 466.765 42.1534C465.965 39.0868 465.565 36.2868 465.832 36.0201C466.098 35.6201 469.298 34.9534 472.765 34.2868C476.232 33.6201 479.965 32.1534 481.165 30.9534C482.898 29.0868 482.898 28.6868 480.498 26.9534C479.032 25.7534 474.365 23.0868 469.965 20.8201L462.232 16.9534L463.165 11.3534C464.765 2.4201 464.632 0.553438 462.365 0.0201043C461.032 -0.246562 458.365 2.15344 455.298 6.4201ZM445.165 19.7534C445.165 20.4201 444.898 21.0868 444.632 21.0868C444.232 21.0868 443.565 20.4201 443.165 19.7534C442.765 18.9534 443.032 18.4201 443.698 18.4201C444.498 18.4201 445.165 18.9534 445.165 19.7534ZM457.165 27.7534C457.165 32.4201 454.632 32.9534 451.298 29.2201C449.432 27.0868 449.298 26.0201 450.498 23.8868C452.632 19.7534 457.165 22.4201 457.165 27.7534ZM467.165 26.6868C469.565 27.7534 470.098 28.5534 468.898 29.3534C466.098 31.0868 464.232 30.5534 463.432 27.7534C462.632 24.6868 462.632 24.5534 467.165 26.6868Z" fill="#CBCBCB"/>
<path d="M419.032 30.4199C415.432 31.8866 413.832 35.6199 416.499 36.5533C418.765 37.4866 426.632 33.2199 427.565 30.6866C428.099 28.8199 423.299 28.6866 419.032 30.4199Z" fill="#CBCBCB"/>
<path d="M388.232 36.6868C385.165 37.8868 386.365 41.0868 389.698 41.0868C395.698 41.0868 401.165 39.3534 401.165 37.6201C401.165 36.2868 399.432 35.7534 395.565 35.8868C392.365 35.8868 389.032 36.2868 388.232 36.6868Z" fill="#CBCBCB"/>
<path d="M241.565 40.5532C241.165 41.7532 241.432 45.6199 242.365 49.3532C244.632 59.3532 244.365 60.1532 237.832 63.7532C227.698 69.2199 229.032 72.5532 241.832 74.1532L249.565 75.0866L252.632 84.9532C254.232 90.4199 256.365 95.3532 257.432 95.8866C260.098 97.6199 264.898 92.0199 268.098 83.4866L270.898 75.6199L276.232 76.0199C280.098 76.2866 281.832 75.7532 282.898 74.1532C284.232 72.1532 283.432 70.8199 278.765 66.0199C272.765 59.8866 272.365 58.2866 274.765 50.1532C276.898 42.8199 274.898 41.0866 268.498 44.9532C265.832 46.4199 262.898 47.7532 262.098 47.7532C261.165 47.7532 257.298 45.6199 253.565 43.0866C245.965 38.0199 242.898 37.3532 241.565 40.5532ZM253.298 50.2866L256.365 52.6866L253.432 54.2866C250.765 55.6199 250.365 55.4866 249.165 52.4199C248.365 50.4199 247.832 48.6866 247.832 48.2866C247.832 46.9532 250.365 47.8866 253.298 50.2866ZM265.165 64.4199C265.165 68.9532 265.032 69.0866 259.965 69.0866C256.498 69.0866 254.498 68.4199 253.965 66.9532C252.498 63.2199 253.032 61.7532 256.765 59.4866C261.832 56.4199 265.165 58.4199 265.165 64.4199ZM246.498 67.7532C246.498 68.4199 245.965 69.0866 245.165 69.0866C244.498 69.0866 243.832 68.4199 243.832 67.7532C243.832 66.9532 244.498 66.4199 245.165 66.4199C245.965 66.4199 246.498 66.9532 246.498 67.7532ZM262.498 79.8866C260.365 86.9532 259.032 86.9532 257.698 80.0199C256.898 76.1532 257.165 75.7532 260.232 75.7532C263.432 75.7532 263.565 76.0199 262.498 79.8866Z" fill="#CBCBCB"/>
<path d="M356.098 43.087C353.565 44.1536 351.832 45.7536 352.232 46.687C353.298 49.887 366.232 46.5536 367.565 42.687C368.232 40.4203 361.698 40.687 356.098 43.087Z" fill="#CBCBCB"/>
<path d="M326.098 48.5535C321.298 50.0202 319.832 51.0869 320.098 52.8202C320.632 55.3535 322.098 55.2202 332.898 52.2869C337.032 50.9535 339.832 49.4869 339.832 48.2869C339.832 45.8869 334.498 46.0202 326.098 48.5535Z" fill="#CBCBCB"/>
<path d="M289.965 56.4201C284.365 58.4201 281.832 60.9534 283.832 62.9534C285.298 64.4201 304.232 58.2868 304.898 56.0201C305.565 53.7534 296.632 54.0201 289.965 56.4201Z" fill="#CBCBCB"/>
<path d="M285.832 76.9534C284.765 78.8201 292.498 83.4868 298.232 84.5534C309.165 86.6868 302.232 78.9534 290.898 76.5534C288.498 76.0201 286.365 76.1534 285.832 76.9534Z" fill="#CBCBCB"/>
<path d="M6.49844 79.0867C6.49844 80.1533 7.69844 84.02 9.16511 87.7533C10.6318 91.4867 11.8318 95.0867 11.8318 95.7533C11.8318 96.42 9.16511 98.5533 5.83178 100.553C-2.83489 105.62 -1.90156 108.287 9.03178 109.087L17.5651 109.753L21.0318 119.087C23.6984 126.02 25.2984 128.553 27.4318 128.82C30.6318 129.353 31.8318 126.153 31.8318 116.82V110.553L41.4318 110.153C53.9651 109.62 54.7651 107.353 44.4984 101.22C40.3651 98.6867 36.7651 96.1533 36.3651 95.4867C35.9651 94.82 37.1651 91.7533 39.0318 88.5533C44.0984 79.7533 41.1651 78.6867 30.4984 85.22L23.8318 89.22L17.8318 84.2867C14.4984 81.4867 11.8318 78.6867 11.8318 78.1533C11.8318 77.62 10.6318 77.0867 9.16511 77.0867C7.69844 77.0867 6.49844 78.02 6.49844 79.0867ZM26.7651 101.087C26.3651 105.487 25.4318 106.02 22.8984 103.487C20.3651 100.82 21.5651 96.6867 24.7651 97.3533C26.3651 97.7533 27.0318 98.9533 26.7651 101.087ZM36.4984 103.753C36.8984 104.42 36.6318 105.087 35.9651 105.087C35.1651 105.087 34.4984 104.42 34.4984 103.753C34.4984 102.953 34.7651 102.42 35.0318 102.42C35.4318 102.42 36.0984 102.953 36.4984 103.753Z" fill="#CBCBCB"/>
<path d="M208.898 78.5533C204.365 81.0867 206.498 82.42 215.165 82.42C219.965 82.42 223.832 81.8867 223.832 81.3533C223.832 77.4867 213.832 75.62 208.898 78.5533Z" fill="#CBCBCB"/>
<path d="M179.832 80.9533C176.898 81.4867 175.032 82.5533 174.765 84.02C174.365 86.02 175.298 86.42 180.765 86.42C184.232 86.42 188.498 86.02 190.232 85.62C193.832 84.5533 194.232 81.0867 190.632 81.0867C189.165 81.0867 187.298 80.82 186.232 80.5533C185.298 80.2867 182.365 80.42 179.832 80.9533Z" fill="#CBCBCB"/>
<path d="M368.898 85.2199L364.498 90.4199L356.765 89.0866C346.765 87.2199 339.298 87.7533 338.765 90.4199C338.632 91.6199 341.298 95.7533 345.032 99.7533L351.565 107.087L347.698 111.887C345.565 114.553 343.832 117.487 343.832 118.287C343.832 120.153 349.032 120.153 356.632 118.287L362.765 116.687L369.832 123.753C379.565 133.353 381.832 132.687 381.965 120.42L382.098 111.087L387.032 109.22C393.832 106.687 393.165 102.82 385.432 99.8866C378.365 97.0866 377.165 95.4866 377.165 87.6199C377.165 79.0866 374.498 78.4199 368.898 85.2199ZM358.498 95.7533C360.232 96.8199 360.232 97.2199 358.098 99.3533C355.965 101.62 355.698 101.487 352.232 98.0199L348.498 94.4199H352.498C354.765 94.4199 357.432 95.0866 358.498 95.7533ZM371.565 100.02C372.498 100.953 373.165 102.953 373.165 104.687C373.165 108.553 367.698 111.087 363.698 109.087C360.365 107.22 360.498 105.353 364.098 101.487C367.298 98.0199 369.165 97.6199 371.565 100.02ZM375.832 117.353C375.832 120.153 375.698 120.153 373.165 117.753C371.165 115.887 370.898 114.953 372.098 114.287C374.365 112.82 375.832 114.02 375.832 117.353Z" fill="#CBCBCB"/>
<path d="M135.432 83.3535C134.098 83.7535 133.165 84.9535 133.432 86.1535C133.832 88.0202 135.165 88.2868 140.498 88.0202C147.965 87.4868 150.898 85.7535 147.832 83.7535C145.832 82.4202 139.698 82.2868 135.432 83.3535Z" fill="#CBCBCB"/>
<path d="M95.4318 86.02C94.8985 86.42 94.4985 87.62 94.4985 88.6867C94.4985 89.8867 96.7651 90.42 103.032 90.42C111.565 90.42 115.298 88.5533 111.698 86.2867C109.565 84.9533 96.6318 84.6867 95.4318 86.02Z" fill="#CBCBCB"/>
<path d="M238.632 89.8868C235.432 94.0201 235.032 97.0868 237.698 97.0868C239.965 97.0868 245.165 90.9534 245.165 88.2868C245.165 85.2201 241.565 86.1534 238.632 89.8868Z" fill="#CBCBCB"/>
<path d="M315.832 89.4866C315.832 92.2866 329.032 99.0866 330.765 97.3532C332.765 95.3532 329.832 91.8866 324.232 89.4866C318.765 87.2199 315.832 87.2199 315.832 89.4866Z" fill="#CBCBCB"/>
<path d="M63.8318 90.2867C60.8985 90.8201 59.1651 91.8867 59.1651 93.0867C59.1651 97.3534 74.7651 95.6201 75.5651 91.3534C76.0985 88.9534 73.0318 88.6867 63.8318 90.2867Z" fill="#CBCBCB"/>
<path d="M226.765 106.553C222.498 110.82 218.898 117.887 220.232 119.22C222.898 121.887 233.165 110.553 233.165 104.82C233.165 101.353 231.432 101.887 226.765 106.553Z" fill="#CBCBCB"/>
<path d="M58.4985 119.754C58.4985 121.754 64.2318 126.554 66.3651 126.154C69.8318 125.487 69.4318 122.554 65.2985 120.554C60.7651 118.154 58.4985 117.887 58.4985 119.754Z" fill="#CBCBCB"/>
<path d="M328.898 120.287C323.432 124.42 328.498 126.954 334.232 122.954C335.832 121.887 337.165 120.42 337.165 119.62C337.165 117.887 331.565 118.287 328.898 120.287Z" fill="#CBCBCB"/>
<path d="M310.498 128.82C305.565 131.22 303.432 135.753 307.165 135.753C310.765 135.753 319.832 130.553 319.832 128.42C319.832 125.753 316.232 125.887 310.498 128.82Z" fill="#CBCBCB"/>
<path d="M77.8318 131.887C76.7651 133.487 84.7651 142.42 87.4318 142.42C90.4984 142.42 89.2984 137.62 85.5651 134.953C79.6984 130.687 78.7651 130.287 77.8318 131.887Z" fill="#CBCBCB"/>
<path d="M199.432 140.02C194.498 145.62 193.432 148.287 195.698 149.62C196.898 150.42 209.165 137.753 209.165 135.62C209.165 132.553 203.832 134.953 199.432 140.02Z" fill="#CBCBCB"/>
<path d="M284.498 140.287C272.898 145.62 271.298 151.353 282.765 146.953C290.098 144.02 296.098 139.887 295.165 138.287C293.965 136.553 291.965 136.953 284.498 140.287Z" fill="#CBCBCB"/>
<path d="M98.4985 153.753C98.4985 156.42 105.165 162.287 108.232 162.42C111.832 162.42 110.898 159.087 106.365 155.22C101.832 151.353 98.4985 150.687 98.4985 153.753Z" fill="#CBCBCB"/>
<path d="M244.232 155.22C236.898 158.82 234.898 162.42 240.232 162.42C244.098 162.42 257.565 155.753 258.232 153.353C259.032 150.687 251.698 151.62 244.232 155.22Z" fill="#CBCBCB"/>
<path d="M181.565 161.62C176.232 166.153 172.098 173.887 174.098 175.887C176.098 177.887 177.298 176.953 183.165 168.42C186.765 163.353 187.832 160.553 186.898 159.62C185.965 158.687 184.365 159.353 181.565 161.62Z" fill="#CBCBCB"/>
<path d="M215.165 165.887C205.298 170.153 202.365 172.553 205.698 173.887C209.832 175.487 228.898 166.42 227.165 163.753C225.965 161.753 224.098 162.153 215.165 165.887Z" fill="#CBCBCB"/>
<path d="M144.632 174.687L141.432 178.953L134.498 177.353C130.765 176.42 126.232 175.753 124.365 175.753C119.432 175.753 120.232 180.953 125.832 186.42L130.498 190.953L125.032 196.553C121.565 200.02 119.698 203.087 120.098 204.553C120.498 206.82 121.698 207.087 131.965 206.687L143.165 206.287L145.698 210.553C155.165 226.687 163.565 226.82 159.298 210.687L157.432 203.753L160.898 202.953C171.165 200.687 172.498 200.153 172.498 198.287C172.498 197.22 168.632 194.42 163.965 192.153C154.098 187.22 153.165 186.153 153.165 179.487C153.165 169.487 150.098 167.753 144.632 174.687ZM135.832 185.087C135.832 185.753 135.565 186.42 135.298 186.42C134.898 186.42 134.232 185.753 133.832 185.087C133.432 184.287 133.698 183.753 134.365 183.753C135.165 183.753 135.832 184.287 135.832 185.087ZM146.232 189.353C147.165 190.287 147.832 193.087 147.832 195.62V200.42L143.565 196.153C139.965 192.553 139.698 191.62 141.165 189.887C143.165 187.353 144.098 187.22 146.232 189.353ZM136.898 199.487C137.165 200.42 135.965 201.087 133.832 201.087C130.632 201.087 130.365 200.82 131.832 199.087C133.698 196.82 135.965 196.953 136.898 199.487Z" fill="#CBCBCB"/>
<path d="M178.765 178.153C174.232 180.42 173.298 184.82 177.565 184.02C182.098 183.22 191.832 178.553 191.832 177.087C191.832 175.087 183.698 175.62 178.765 178.153Z" fill="#CBCBCB"/>
</svg>
