<svg width="300" height="288" viewBox="0 0 300 288" fill="none" xmlns="http://www.w3.org/2000/svg">
<path d="M155.972 37.5482C156.277 37.8533 156.917 37.9346 157.586 37.4993C157.588 37.4954 157.592 37.4911 157.595 37.4857C157.621 37.4375 157.657 37.3561 157.697 37.2318C157.778 36.9843 157.86 36.6261 157.94 36.1605C158.101 35.233 158.246 33.9409 158.372 32.389C158.623 29.2887 158.793 25.1957 158.868 21.0101C158.943 16.8249 158.923 12.5547 158.792 9.10187C158.727 7.37505 158.634 5.85804 158.513 4.66046C158.389 3.4413 158.241 2.61166 158.086 2.21808L158.085 2.21515C157.761 1.37326 157.439 0.882918 157.171 0.651672C157.043 0.541647 156.95 0.509465 156.892 0.502258C156.84 0.495849 156.774 0.503873 156.682 0.560852C156.47 0.692171 156.186 1.0436 155.901 1.73761C155.624 2.41231 155.375 3.34011 155.179 4.51788L155.177 4.52863L155.084 5.09698C154.88 6.56039 154.752 8.97107 154.693 11.8685C154.627 15.1653 154.652 19.0529 154.752 22.805C154.852 26.558 155.027 30.1693 155.259 32.9124C155.375 34.285 155.504 35.431 155.645 36.2659C155.715 36.6844 155.786 37.0128 155.855 37.2474C155.89 37.3647 155.922 37.4483 155.948 37.5032C155.96 37.528 155.968 37.5422 155.972 37.5482Z" fill="#CBCBCB" stroke="#CBCBCB"/>
<path d="M215.04 53.8834C215.21 53.887 215.516 53.7923 215.987 53.4595C216.444 53.1373 216.993 52.6366 217.636 51.9449C220.213 49.1707 224.056 43.5788 229.057 35.2447L229.06 35.2388C230.45 32.9869 231.497 31.008 232.202 29.4009C232.915 27.7768 233.257 26.5826 233.286 25.8814C233.299 25.5831 233.248 25.4643 233.229 25.4302C233.201 25.4285 233.141 25.4323 233.029 25.4722C232.786 25.5597 232.428 25.7749 231.949 26.1734C231.477 26.5664 230.912 27.1158 230.255 27.8384L230.247 27.8472C227.549 30.6772 223.603 36.1759 220.323 41.3043C218.686 43.8641 217.222 46.3195 216.17 48.2877C215.643 49.2724 215.224 50.1281 214.938 50.8101C214.794 51.1511 214.687 51.4419 214.616 51.6793C214.543 51.9242 214.519 52.0824 214.519 52.1685C214.519 52.8781 214.604 53.3417 214.728 53.6119C214.787 53.741 214.846 53.8042 214.888 53.8355C214.925 53.863 214.969 53.8818 215.04 53.8834Z" fill="#CBCBCB" stroke="#CBCBCB"/>
<path d="M108.552 76.7354C109.068 76.7354 109.442 76.692 109.693 76.6114C109.938 76.5326 109.994 76.4444 110.012 76.3965C110.039 76.326 110.059 76.15 109.913 75.7813C109.77 75.4218 109.499 74.9506 109.063 74.3438C107.311 71.9038 103.215 67.6718 95.936 60.5264C90.1349 54.8586 85.9356 51.2272 83.2026 49.5089C82.5224 49.0811 81.9469 48.7813 81.4712 48.5977C80.9887 48.4116 80.6471 48.3605 80.4194 48.3848C80.2194 48.4063 80.1085 48.4833 80.0278 48.6124C79.9303 48.7685 79.8521 49.0457 79.8521 49.502C79.8521 49.502 79.8521 49.5061 79.853 49.5137C79.854 49.5215 79.8557 49.5327 79.8589 49.5469C79.8655 49.5763 79.8774 49.6153 79.896 49.6651C79.9337 49.7662 79.9942 49.8953 80.0825 50.0528C80.2592 50.368 80.5266 50.7646 80.8804 51.2354C81.587 52.1758 82.6084 53.3714 83.853 54.7354C86.3403 57.4612 89.693 60.8282 93.146 64.1065C96.599 67.3847 100.144 70.5678 103.013 72.9288C104.449 74.1101 105.708 75.0788 106.698 75.7501C107.193 76.0862 107.612 76.341 107.945 76.5098C108.301 76.6901 108.489 76.7354 108.552 76.7354Z" fill="#CBCBCB" stroke="#CBCBCB"/>
<path d="M197.575 236.21C200.135 236.676 201.938 236.675 203.141 236.075C204.282 235.507 205.011 234.324 205.22 232.023C205.43 229.713 205.101 226.396 204.231 221.757C203.364 217.128 201.967 211.225 200.068 203.761C198.504 197.704 197.308 193.237 196.594 189.892C195.885 186.564 195.629 184.253 196.014 182.542C196.415 180.761 197.493 179.689 199.216 178.798C200.896 177.929 203.287 177.185 206.385 176.097C215.521 172.88 231.031 165.041 238.132 160.1L238.792 159.631C240.914 158.039 242.258 156.812 243.076 155.648C243.878 154.506 244.185 153.409 244.185 152.035C244.185 150.755 243.985 149.74 243.431 148.834C242.874 147.922 241.925 147.066 240.325 146.172C237.103 144.373 231.432 142.521 221.615 139.716L221.612 139.715C206.359 135.252 198.161 132.811 193.583 130.983C191.293 130.069 189.86 129.29 188.894 128.458C187.91 127.61 187.439 126.73 187.023 125.692C186.758 125.049 186.554 123.871 186.388 122.262C186.22 120.63 186.086 118.493 185.986 115.888C185.786 110.677 185.718 103.568 185.785 94.8321V94.8272C185.985 82.0822 186.051 75.3112 185.77 71.4893C185.63 69.577 185.404 68.4549 185.093 67.709C184.795 66.9973 184.409 66.604 183.853 66.171C183.152 65.6611 182.35 65.2112 181.645 64.8907C181.292 64.7303 180.97 64.6047 180.702 64.5206C180.449 64.4411 180.275 64.4108 180.179 64.4053C180.172 64.4081 180.162 64.4106 180.149 64.4161C180.094 64.4399 180.015 64.4814 179.909 64.546C179.698 64.6749 179.419 64.8737 179.075 65.1397C178.39 65.67 177.483 66.4436 176.421 67.4063C174.298 69.3301 171.573 71.9881 168.78 74.9141C159.728 84.4988 147.084 100.073 140.971 109.507L140.968 109.513L138.835 112.713L138.656 112.982L138.338 112.929L112.47 108.662C96.7415 106.063 84.6252 104.433 75.864 103.768C71.4828 103.435 67.9524 103.345 65.2351 103.493C62.4993 103.643 60.6535 104.031 59.5906 104.608L59.5818 104.613L59.2341 104.807C55.8479 106.843 54.9621 111.857 57.5007 116.01L57.7664 116.422L57.7722 116.431C58.3987 117.402 59.8843 118.954 62.0544 120.926C64.2101 122.885 67.0011 125.223 70.196 127.761C76.5853 132.836 84.575 138.694 92.2976 143.887V143.888C95.5627 146.087 98.699 148.188 101.1 149.822C102.301 150.639 103.321 151.342 104.083 151.882C104.781 152.377 105.301 152.766 105.53 152.98L105.531 152.979C105.855 153.238 105.817 153.646 105.777 153.856C105.728 154.112 105.612 154.411 105.459 154.73C105.148 155.375 104.626 156.221 103.946 157.203C102.582 159.174 100.536 161.756 98.1277 164.499L98.1257 164.501C89.1359 174.623 81.5503 184.239 76.2156 192.1C73.5478 196.031 71.4484 199.515 70.0183 202.398C68.5775 205.302 67.8523 207.528 67.8523 208.969C67.8523 209.56 68.0019 210.263 68.2673 210.935C68.5333 211.607 68.9001 212.21 69.3054 212.615C70.1658 213.476 71.3196 213.998 73.1365 214.055C74.9757 214.113 77.4695 213.692 80.9617 212.672C87.9427 210.632 98.7466 206.246 115.953 198.776V198.777C122.222 196.043 128.16 193.541 132.699 191.722C134.968 190.812 136.892 190.072 138.335 189.559C139.055 189.302 139.66 189.099 140.132 188.961C140.578 188.83 140.968 188.735 141.219 188.735C141.462 188.735 141.723 188.81 141.974 188.911C142.233 189.015 142.52 189.163 142.826 189.345C143.439 189.709 144.163 190.23 144.949 190.863C146.521 192.131 148.371 193.882 150.12 195.832L150.121 195.831C159.976 206.618 170.061 216.404 178.593 223.654C182.859 227.28 186.73 230.267 189.985 232.427C193.259 234.6 195.851 235.897 197.575 236.21ZM196.746 228.135C196.288 228.101 195.766 227.921 195.179 227.626C194.003 227.034 192.412 225.899 190.283 224.138C186.015 220.606 179.469 214.459 169.539 204.796C164.141 199.598 158.843 194.6 154.663 190.736C150.482 186.872 147.451 184.173 146.538 183.517C145.318 182.748 144.186 182.254 142.763 182.095C141.323 181.933 139.547 182.11 137.043 182.753C132.02 184.042 124.226 187.158 110.613 192.897H110.611C98.4807 197.962 90.7 201.102 85.95 202.758C83.5832 203.583 81.9331 204.052 80.8621 204.199C80.3379 204.271 79.878 204.278 79.5281 204.157C79.3423 204.093 79.1632 203.984 79.033 203.809C78.9009 203.631 78.8523 203.428 78.8523 203.235C78.8523 203.01 78.9154 202.758 79.0027 202.507C79.093 202.247 79.2226 201.949 79.3855 201.619C79.7117 200.959 80.1859 200.14 80.7849 199.19C81.9841 197.287 83.7053 194.825 85.8005 192.004C89.9923 186.359 95.7004 179.249 101.774 172.241C106.104 167.245 109.393 163.192 111.596 160.127C112.699 158.594 113.522 157.317 114.068 156.301C114.626 155.261 114.852 154.566 114.852 154.169C114.852 152.451 114.083 150.776 110.915 147.889C107.744 144.998 102.272 140.983 93.0662 134.579L93.0603 134.575C85.0637 128.844 75.4418 121.629 71.6853 118.275L65.0212 112.411L64.0544 111.56L65.3425 111.535L72.4089 111.402H72.4187C74.3924 111.402 79.4286 111.941 85.9011 112.807C92.3904 113.674 100.363 114.875 108.235 116.209C116.096 117.541 123.457 118.641 128.983 119.357C131.746 119.714 134.047 119.976 135.72 120.123C136.558 120.197 137.232 120.241 137.726 120.255C137.974 120.262 138.169 120.261 138.313 120.253C138.475 120.244 138.522 120.23 138.51 120.234L138.529 120.227C138.517 120.23 138.551 120.216 138.651 120.14C138.756 120.059 138.896 119.941 139.071 119.78C139.421 119.46 139.888 118.998 140.462 118.406C141.607 117.224 143.156 115.542 144.996 113.485C148.674 109.374 153.503 103.78 158.566 97.7178V97.7169C163.635 91.5807 168.339 86.0434 171.843 82.0391C173.594 80.0378 175.048 78.4166 176.099 77.294C176.624 76.7335 177.054 76.2918 177.372 75.9883C177.53 75.8377 177.669 75.7137 177.782 75.6241C177.838 75.58 177.898 75.5356 177.958 75.5001C177.988 75.4823 178.028 75.4611 178.073 75.4434C178.113 75.4278 178.189 75.4025 178.285 75.4024C178.509 75.4024 178.655 75.5304 178.722 75.6075C178.792 75.6867 178.837 75.7747 178.866 75.8419C178.926 75.9802 178.972 76.1558 179.011 76.3438C179.092 76.7279 179.165 77.2755 179.231 77.9561C179.364 79.323 179.476 81.2892 179.568 83.7003C179.752 88.5256 179.852 95.1657 179.852 102.436V128.788L183.201 132.781L183.202 132.78L183.207 132.787C184.853 134.814 187.316 136.442 193.192 138.616C199.069 140.791 208.28 143.486 223.351 147.688L223.352 147.687C226.497 148.556 229.38 149.495 231.515 150.319C232.581 150.731 233.473 151.117 234.12 151.457C234.442 151.626 234.717 151.791 234.927 151.948C235.033 152.027 235.132 152.111 235.214 152.2C235.292 152.285 235.379 152.4 235.427 152.544C235.505 152.778 235.43 152.99 235.369 153.112C235.303 153.245 235.206 153.371 235.103 153.485C234.895 153.717 234.589 153.983 234.213 154.272C233.455 154.853 232.34 155.585 230.959 156.414C228.193 158.074 224.314 160.147 219.971 162.218H219.972C212.39 165.951 203.477 170.298 198.683 172.579L196.897 173.422C191.962 175.891 189.626 177.596 188.993 180.961C188.668 182.688 188.785 184.892 189.321 187.919C189.857 190.942 190.802 194.74 192.102 199.641V199.643C195.234 211.637 196.971 218.35 197.807 222.162C198.224 224.061 198.425 225.275 198.456 226.074C198.486 226.854 198.359 227.37 197.97 227.722L197.972 227.723C197.649 228.046 197.222 228.17 196.746 228.135Z" fill="#CBCBCB" stroke="#CBCBCB"/>
<path d="M231.93 104.235C231.992 104.257 232.199 104.275 232.631 104.192C233.04 104.115 233.57 103.964 234.21 103.743C235.488 103.303 237.155 102.601 239.08 101.709C242.927 99.9266 247.765 97.4035 252.508 94.7491C257.251 92.0945 261.889 89.3143 265.338 87.0176C267.063 85.8682 268.481 84.8465 269.462 84.0274C269.954 83.6167 270.323 83.2676 270.564 82.9874C270.685 82.8472 270.764 82.7353 270.81 82.6514C270.84 82.5983 270.849 82.5688 270.851 82.5596C270.85 82.2687 270.784 82.1175 270.714 82.0362C270.646 81.9583 270.513 81.8723 270.22 81.8438C269.599 81.7834 268.531 82.0109 266.865 82.6524C263.57 83.9209 258.268 86.6692 250.262 91.1387C240.716 96.4795 235.354 99.6263 232.79 101.599C232.152 102.089 231.707 102.493 231.418 102.826C231.122 103.167 231.031 103.388 231.015 103.513C231.005 103.596 231.02 103.677 231.143 103.794C231.285 103.929 231.536 104.077 231.93 104.235Z" fill="#CBCBCB" stroke="#CBCBCB"/>
<path d="M33.4395 101.675C33.4395 101.673 33.4403 101.669 33.4395 101.662C33.4357 101.634 33.4166 101.567 33.3447 101.456C33.1977 101.23 32.8975 100.927 32.4004 100.551C30.4117 99.0475 25.9063 96.8354 19.0342 94.0999H19.0332L19.0303 94.098C11.8294 91.1643 6.80055 89.4144 3.7334 88.7747C2.96969 88.6154 2.34083 88.5283 1.83887 88.5062C1.32966 88.4837 0.987483 88.5303 0.775391 88.6097C0.581537 88.6823 0.534491 88.764 0.515625 88.8275C0.487457 88.9227 0.48492 89.1154 0.617188 89.4534L0.621094 89.4612L0.623047 89.4691C0.620351 89.4614 0.629763 89.4879 0.682617 89.5511C0.732488 89.6106 0.806899 89.6856 0.911133 89.7757C1.12025 89.9564 1.4192 90.1731 1.80566 90.4212C2.57692 90.9164 3.65242 91.5101 4.94824 92.1663C7.53737 93.4775 10.9674 95.0183 14.5107 96.4905C18.0532 97.9624 21.701 99.3619 24.7256 100.393C26.2384 100.909 27.5905 101.33 28.6924 101.622C29.8096 101.918 30.6236 102.069 31.085 102.069C31.8683 102.069 32.4559 102.015 32.8652 101.921C33.2957 101.823 33.4189 101.705 33.4395 101.675Z" fill="#CBCBCB" stroke="#CBCBCB"/>
<path d="M22.9382 171.402C23.3469 171.387 24.1598 171.2 25.3269 170.843C26.4764 170.492 27.9161 169.993 29.5447 169.389C32.8013 168.183 36.7936 166.565 40.6882 164.892C44.5831 163.219 48.374 161.494 51.2292 160.073C52.6581 159.361 53.8444 158.73 54.6902 158.222C55.1141 157.968 55.4418 157.751 55.6687 157.575C55.7823 157.487 55.8621 157.416 55.9128 157.363C55.9319 157.343 55.9431 157.328 55.95 157.319C56.0236 157.072 56.0165 156.928 55.9929 156.853C55.9754 156.798 55.9367 156.735 55.7996 156.673C55.6453 156.605 55.3889 156.552 54.991 156.551C54.5986 156.551 54.1019 156.601 53.49 156.711C51.0284 157.151 46.9372 158.499 40.8689 160.9L40.864 160.902L38.2322 161.913C32.3686 164.178 28.4075 165.813 25.7888 167.1C24.2919 167.836 23.2564 168.449 22.5603 168.987C21.8734 169.518 21.5596 169.947 21.4333 170.309C21.3477 170.672 21.443 170.897 21.6277 171.055C21.8488 171.245 22.2726 171.4 22.9382 171.402Z" fill="#CBCBCB" stroke="#CBCBCB"/>
<path d="M283.782 165.537C290.529 165.938 294.39 166.101 296.565 165.937C297.664 165.854 298.241 165.692 298.539 165.502C298.673 165.416 298.741 165.33 298.782 165.244C298.825 165.151 298.852 165.024 298.852 164.836C298.852 164.476 298.723 164.161 298.287 163.84C297.817 163.495 297.008 163.159 295.684 162.838C293.375 162.279 289.671 161.802 283.909 161.29L281.311 161.067C276.245 160.667 270.238 160.134 267.96 159.866L267.957 159.865C266.914 159.735 265.671 159.669 264.542 159.685C263.397 159.702 262.431 159.803 261.911 159.976L261.88 159.986L261.85 159.993C261.248 160.113 260.716 160.353 260.347 160.623C259.947 160.915 259.852 161.152 259.852 161.236C259.852 161.315 259.89 161.453 260.102 161.651C260.316 161.851 260.665 162.07 261.174 162.297C262.191 162.751 263.736 163.189 265.798 163.595C269.401 164.304 274.502 164.901 280.941 165.352L283.782 165.537Z" fill="#CBCBCB" stroke="#CBCBCB"/>
<path d="M267.218 234.068C267.51 234.068 267.772 233.97 267.952 233.835C268.141 233.693 268.185 233.559 268.185 233.502C268.183 233.491 268.171 233.438 268.119 233.329C268.058 233.202 267.959 233.038 267.819 232.836C267.538 232.432 267.116 231.915 266.565 231.3C265.464 230.071 263.88 228.487 261.959 226.683C258.121 223.076 252.964 218.619 247.707 214.426L247.706 214.425C243.304 210.891 240.176 208.69 238.165 207.7C237.665 207.455 237.249 207.29 236.909 207.198C236.564 207.105 236.331 207.095 236.182 207.121C236.053 207.144 235.995 207.193 235.956 207.253C235.905 207.332 235.852 207.487 235.852 207.769C235.852 207.751 235.849 207.781 235.892 207.878C235.932 207.968 235.997 208.086 236.094 208.234C236.288 208.531 236.583 208.908 236.973 209.358C237.752 210.257 238.877 211.405 240.247 212.72C242.984 215.347 246.67 218.606 250.457 221.785C254.243 224.964 258.122 228.058 261.242 230.354C262.803 231.502 264.167 232.446 265.231 233.101C265.763 233.428 266.212 233.678 266.567 233.844C266.944 234.02 267.148 234.068 267.218 234.068Z" fill="#CBCBCB" stroke="#CBCBCB"/>
<path d="M31.0854 250.068C31.0673 250.068 31.0913 250.071 31.1782 250.04C31.2576 250.012 31.3633 249.965 31.4966 249.897C31.7629 249.76 32.1077 249.554 32.5239 249.281C33.3546 248.737 34.435 247.952 35.6812 246.996C38.1714 245.087 41.2976 242.518 44.3599 239.889C47.4222 237.259 50.415 234.575 52.6392 232.434C53.7523 231.362 54.6655 230.432 55.2983 229.718C55.6157 229.36 55.8545 229.065 56.0103 228.839C56.0881 228.726 56.1386 228.641 56.1675 228.58C56.1766 228.561 56.1808 228.547 56.1841 228.538C56.1813 227.946 56.0991 227.593 55.9858 227.404C55.9349 227.32 55.8821 227.275 55.8286 227.248C55.772 227.22 55.6825 227.195 55.5386 227.201C55.2337 227.213 54.7716 227.355 54.1021 227.7C53.4434 228.04 52.6312 228.551 51.6392 229.245L51.6323 229.249L51.6265 229.253L51.2017 229.54C48.931 231.11 44.5047 234.678 40.3911 238.15C38.2021 239.998 36.1104 241.811 34.4927 243.269C33.6837 243.998 32.9964 244.636 32.4751 245.144C31.9406 245.664 31.6142 246.017 31.4966 246.187L31.4897 246.196L31.4819 246.207L31.3745 246.355C30.8531 247.108 30.5855 248.086 30.5854 248.885C30.5854 249.312 30.6618 249.64 30.7729 249.842C30.8736 250.024 30.9756 250.068 31.0854 250.068Z" fill="#CBCBCB" stroke="#CBCBCB"/>
<path d="M136.503 280.967C136.659 280.95 136.909 280.835 137.257 280.49H137.258C137.379 280.363 137.525 280.118 137.673 279.719C137.817 279.33 137.951 278.83 138.071 278.231C138.312 277.033 138.491 275.477 138.611 273.681C138.851 270.092 138.852 265.595 138.652 261.191C138.453 256.786 138.054 252.492 137.501 249.308C137.223 247.712 136.911 246.419 136.575 245.536C136.406 245.091 136.242 244.78 136.094 244.589C135.938 244.39 135.866 244.402 135.885 244.402C135.782 244.402 135.706 244.424 135.639 244.463C135.57 244.505 135.485 244.582 135.392 244.727C135.199 245.031 135.017 245.564 134.861 246.44C134.552 248.181 134.385 251.043 134.252 255.517C134.052 265.715 134.254 272.775 134.88 276.894C135.036 277.921 135.216 278.752 135.419 279.396C135.624 280.048 135.84 280.473 136.047 280.717C136.24 280.947 136.386 280.98 136.503 280.967Z" fill="#CBCBCB" stroke="#CBCBCB"/>
<path d="M226.285 287.402C226.504 287.402 226.604 287.349 226.656 287.301C226.71 287.251 226.784 287.138 226.814 286.874C226.875 286.32 226.71 285.366 226.211 283.878C225.224 280.933 223.041 276.197 219.439 269.06L219.438 269.057C215.571 261.257 212.686 256.056 210.595 253.126C209.539 251.645 208.731 250.812 208.147 250.484C207.864 250.325 207.698 250.32 207.607 250.343C207.522 250.365 207.4 250.437 207.261 250.671C207.26 250.678 207.259 250.686 207.258 250.697C207.254 250.755 207.256 250.848 207.273 250.981C207.306 251.247 207.385 251.617 207.515 252.087C207.773 253.025 208.213 254.304 208.802 255.839C209.979 258.907 211.74 262.962 213.803 267.287C217.403 274.82 220.025 279.896 222.041 283.085C223.05 284.681 223.892 285.779 224.612 286.473C225.338 287.174 225.877 287.402 226.285 287.402Z" fill="#CBCBCB" stroke="#CBCBCB"/>
</svg>
